# xmcd CD database file
#
# Track frame offsets:
#	150
#	17056
#	44042
#	63796
#	97180
#	133105
#	167472
#	183313
#	210286
#	239507
#	248555
#
# Disc length: 3867 seconds
#
# Revision: 0
# Processed by: cddbd v1.5.2PL0 Copyright (c) Steve Scherf et al.
# Submitted via: CDex 1.51
#
DISCID=910f190b
DTITLE=Philipp van Endert Trio - Khilebor
DYEAR=2006
DGENRE=Jazz
TTITLE0=Praeludium
TTITLE1=Heilan Coo
TTITLE2=A burning Issue
TTITLE3=Kurt's Song
TTITLE4=Khilebor
TTITLE5=So close
TTITLE6=Sub Gourmet
TTITLE7=All the Things you are
TTITLE8=Sweat and Sour
TTITLE9=Intro (Walking on the milky way)
TTITLE10=Walking On The Milky Way
EXTD=YEAR: 2006
EXTT0=
EXTT1=
EXTT2=
EXTT3=
EXTT4=
EXTT5=
EXTT6=
EXTT7=
EXTT8=
EXTT9=
EXTT10=
PLAYORDER=
